<svg version="1.1" xmlns="http://www.w3.org/2000/svg" xmlns:xlink="http://www.w3.org/1999/xlink" x="0px" y="0px" viewBox="0 0 1000 1000" enable-background="new 0 0 1000 1000" xml:space="preserve" role="img" aria-hidden="true" focusable="false" >
<g><g transform="translate(0.000000,512.000000) scale(0.100000,-0.100000)"><path fill="currentColor" d="M4806.8,4989.4c-1304.9-11.5-2384-23-2399.3-24.9c-19.1-1.9-23-28.7-11.5-130.1c11.5-118.6,5.7-147.3-55.5-315.7l-67-185.6l67-149.2l67-149.2l-74.6-344.4l-72.7-344.4l128.2-375l128.2-373.1l-67-191.3l-67-189.4l13.4-250.6l11.5-252.5l-86.1-97.6c-47.8-53.6-88-101.4-88-103.3c0-3.8-38.3-135.8-84.2-294.7L2065,929.3l103.3-598.9l105.2-600.8l-105.2-367.4c-84.2-300.4-101.4-380.7-88-438.1c9.6-36.4,19.1-72.7,24.9-76.5c3.8-3.8,45.9,40.2,91.8,97.6c76.5,97.6,89.9,105.2,162.6,105.2c76.5,0,80.4-1.9,172.2-151.2l93.8-149.2l-78.4-1586.1l-78.4-1586.1l53.6-116.7l51.7-118.6l179.9-11.5c97.6-7.6,574-28.7,1058.1-49.7c484.1-21,956.7-42.1,1048.5-49.7l170.3-11.5l-116.7,220c-158.8,296.6-170.3,369.3-109.1,623.8c49.7,200.9,57.4,218.1,147.3,317.6c49.7,55.5,55.5,84.2,120.5,577.8c55.5,428.6,74.6,535.7,114.8,614.2c44,88,47.8,120.5,70.8,633.3l24.9,541.5l80.4,126.3c70.8,112.9,86.1,156.9,122.4,357.8l40.2,229.6l141.6,143.5l139.7,143.5l51.7,200.9c38.3,147.3,74.6,239.2,139.7,344.4c174.1,287,162.6,258.3,132,319.5c-26.8,49.7-23,65,74.6,279.3l101.4,227.7l13.4,371.2l13.4,371.2l93.8,128.2c105.2,143.5,130.1,155,350.1,158.8h114.8l281.3,221.9c221.9,172.2,304.2,252.6,396.1,375c86.1,116.7,116.7,172.2,116.7,218.1c0,95.7,30.6,155,84.2,168.4c76.5,19.1,65,74.6-88,403.7l-137.8,298.5l34.5,135.8c26.8,116.7,51.6,164.5,172.2,319.5c76.5,101.4,145.4,195.2,153.1,208.5c7.7,11.5-1.9,95.7-19.1,185.6c-34.5,162.6-34.5,162.6,7.7,248.7l42.1,86.1l-378.8-3.8C7349.6,5016.2,6111.6,5002.8,4806.8,4989.4z"/></g></g>
</svg>
